<svg width="364" height="483" viewBox="0 0 364 483" fill="none" xmlns="http://www.w3.org/2000/svg">
<path d="M43.0025 339.756L47.2759 319.313C47.8259 316.731 50.6184 315.292 53.0301 316.35L64.9616 321.641C66.3579 322.234 67.2887 323.588 67.4156 325.069L69.1504 345.046C69.3619 347.459 67.5002 349.491 65.0885 349.575C64.7077 349.575 64.327 349.575 63.9885 349.575C57.2611 349.575 52.2262 347.967 45.245 344.285C43.5949 343.396 42.7063 341.576 43.0871 339.756H43.0025Z" fill="#00DB4F"/>
<path d="M70.4389 304.89C66.7579 304.89 63.0768 303.028 58.8035 300.911C56.561 299.811 54.234 298.626 51.6954 297.61C49.5798 296.806 48.4797 294.478 49.2413 292.362C50.5107 288.806 51.9915 285.167 52.6685 284.108C55.334 280.003 66.2502 270.988 71.3274 268.448C72.3429 267.94 73.5276 267.856 74.6276 268.237C81.9473 270.946 85.2053 274.966 85.8822 281.823C87.1092 294.817 85.9668 298.753 75.3469 303.747C73.6968 304.509 72.1313 304.89 70.5235 304.89H70.4389Z" fill="#00DB4F"/>
<path d="M23.3877 237.741C23.8954 236.472 24.9532 235.498 26.3071 235.202C28.9727 234.609 33.6268 234.102 39.2118 234.102C45.3891 234.102 48.3086 234.736 48.8163 234.948C51.4395 236.133 53.9359 242.99 54.1051 248.153C54.1051 249.465 53.5551 250.693 52.5396 251.497L41.285 260.554C39.6349 261.866 37.3078 261.74 35.7846 260.3L22.5838 247.392C21.4837 246.291 21.0606 244.683 21.526 243.201C22.1184 241.339 22.88 239.265 23.43 237.826L23.3877 237.741Z" fill="#00DB4F"/>
<path d="M-25.0062 453.056C-24.8482 451.14 -23.8288 449.396 -22.1317 448.438C-18.7945 446.542 -12.7502 443.937 -5.24538 441.631C3.05547 439.081 7.24064 438.728 8.01028 438.803C12.0246 439.312 18.2102 447.495 20.5697 454.364C21.1115 456.127 20.8792 458.004 19.8467 459.503L8.46309 476.322C6.7875 478.766 3.60802 479.556 0.967054 478.251L-22.1019 466.356C-24.0345 465.331 -25.2672 463.345 -25.2534 461.162C-25.2264 458.415 -25.0593 455.314 -24.9144 453.153L-25.0062 453.056Z" fill="#00DB4F"/>
<path d="M101.33 291.205C101.155 290.906 100.993 290.559 100.93 290.314C100.571 288.394 100.702 278.029 101.074 274.676C101.134 274.159 101.288 273.667 101.555 273.23C103.402 270.543 108.293 268.045 112.269 266.042C112.688 265.797 113.113 265.629 113.532 265.384C114.736 264.761 116.204 264.866 117.212 265.765C119.422 267.688 121.077 269.694 122.443 272.03C124.229 275.085 125.421 278.568 126.611 282.735C127.074 284.353 126.316 286.083 124.791 286.774C111.207 293.108 103.309 294.59 101.313 291.175L101.33 291.205Z" fill="#00DB4F"/>
<path d="M316.359 64C319.405 64 322.367 64.5926 325.075 65.693C326.302 66.2009 327.106 67.3013 327.402 68.6134C328.544 74.1156 329.264 83.0884 329.094 88.3367C329.01 90.1143 327.825 91.5956 326.09 92.1035C324.99 92.3998 323.848 92.7807 322.663 93.1193C320.505 93.7965 317.967 94.5584 316.063 94.9393C315.047 95.1509 313.99 94.9393 313.101 94.3467C309.843 92.1882 303.708 87.4478 301.466 85.5009C300.958 85.0776 300.577 84.5274 300.366 83.9349C298.419 79.1099 298.546 74.7505 300.789 71.2798C303.624 66.8781 309.716 64.0423 316.359 64.0423V64Z" fill="#00DB4F"/>
<path d="M290.721 100.071L309.465 115.26C311.8 117.152 311.401 120.804 308.775 122.161C306.15 123.519 303.253 124.875 300.9 125.964C297.46 127.587 294.763 128.832 292.72 130.009C291.182 130.832 289.332 130.694 287.977 129.542C285.466 127.398 282.602 124.478 281.475 122.911C281.226 122.546 281.063 122.142 280.96 121.732C280.256 119.037 278.579 111.09 277.586 105.928C277.234 104.01 278.204 102.073 280.053 101.338C282.305 100.44 285.166 99.5995 287.376 99.1577C288.554 98.9141 289.794 99.2657 290.748 100.038L290.721 100.071Z" fill="#00DB4F"/>
<path d="M284.441 64.6342C285.372 67.3007 284.948 73.5224 273.44 86.0928C272.086 87.5742 269.844 87.9128 268.151 86.8547L258.97 81.1408C257.277 80.0827 256.558 78.0088 257.277 76.1465L263.793 59.0051C264.512 57.1005 266.501 56.0423 268.49 56.3809C277.586 58.1162 283.171 60.952 284.483 64.6342H284.441Z" fill="#00DB4F"/>
<path d="M199.738 186.577L204.367 178.919C205.093 177.727 206.74 177.529 207.721 178.523L212.06 182.922C212.655 183.525 212.829 184.424 212.524 185.259C211.824 187.02 210.977 188.45 209.983 189.431C207.151 192.224 203.537 191.271 200.556 189.575C199.482 188.969 199.132 187.65 199.767 186.607L199.738 186.577Z" fill="#00DB4F"/>
<path d="M210.957 92.0588L218.531 87.3185C219.715 86.5989 221.281 87.1492 221.704 88.4612L223.608 94.3443C223.862 95.1485 223.608 96.0373 222.973 96.6299C221.577 97.8996 220.138 98.7884 218.827 99.2117C215.061 100.439 212.269 97.9419 210.365 95.0639C209.688 94.0481 209.984 92.6937 210.999 92.0588H210.957Z" fill="#00DB4F"/>
<path d="M34.6024 84.3987L42.1761 79.6583C43.3608 78.9388 44.9262 79.489 45.3494 80.8011L47.2533 86.6842C47.5072 87.4884 47.2533 88.3772 46.6186 88.9697C45.2224 90.2395 43.7838 91.1283 42.4722 91.5515C38.7066 92.7789 35.9141 90.2818 34.0101 87.4037C33.3331 86.3879 33.6293 85.0335 34.6448 84.3987H34.6024Z" fill="#00DB4F"/>
<path d="M29.9061 219.544L35.5334 212.602C36.4219 211.502 38.072 211.544 38.9182 212.687L42.5992 217.639C43.107 218.316 43.1493 219.247 42.7262 220.009C41.7953 221.66 40.7376 222.972 39.5952 223.776C36.4219 226.146 32.9525 224.707 30.2446 222.591C29.2714 221.829 29.1022 220.475 29.8638 219.544H29.9061Z" fill="#00DB4F"/>
<path d="M136.236 38.229L139.917 46.3553C140.509 47.6251 139.706 49.1065 138.352 49.3604L132.301 50.4608C131.455 50.6301 130.609 50.2492 130.143 49.5297C129.086 47.9637 128.366 46.44 128.112 45.0433C127.393 41.1494 130.228 38.6946 133.317 37.2132C134.417 36.7053 135.728 37.1286 136.236 38.229Z" fill="#00DB4F"/>
<path d="M211.628 84.1895C211.671 84.1895 211.755 84.2318 211.798 84.2741L211.628 84.1895Z" fill="#00DB4F"/>
<path d="M266.075 129.974C265.864 131.286 265.018 132.429 263.833 133.022C260.364 134.799 254.905 137.381 253.805 137.762C252.409 138.228 250.928 138.439 249.363 138.439C246.443 138.439 243.397 137.677 240.139 136.873C238.658 136.492 237.093 136.111 235.443 135.773C233.666 135.392 232.354 133.868 232.185 132.048L230.704 113.764L231.085 113.002C233.243 112.283 235.485 111.267 237.812 110.166C240.054 109.108 242.72 107.881 244.709 107.204C245.893 106.78 247.163 106.95 248.263 107.585C252.24 110.039 260.998 116.388 265.398 119.943C266.456 120.79 267.006 122.102 266.879 123.456C266.71 125.488 266.372 128.027 266.033 129.932L266.075 129.974Z" fill="#00DB4F"/>
<path d="M5.0432 285.006C2.78815 284.807 0.994343 283.212 0.533081 281.069L-2.90073 264.022C-3.36199 261.829 -2.1832 259.586 -0.0819054 258.639C0.584358 258.34 1.25062 257.991 1.91688 257.692C4.73569 256.346 7.60578 255 9.55332 255C10.2196 255 10.7833 255.15 11.1933 255.449C13.3459 257.093 26.0562 269.405 31.6425 275.187C32.9238 276.533 33.3338 278.427 32.7188 280.171C32.4113 280.969 32.1037 281.816 31.8475 282.464C30.8145 285.113 28.164 286.842 25.33 286.617L5.0432 285.006Z" fill="#00DB4F"/>
<path d="M241.339 89.6583C240.578 90.0392 239.647 90.1239 238.547 89.9546C235.5 89.4043 232.412 86.9072 231.185 84.9179C231.058 84.7063 230.973 84.4947 230.888 84.2831C230.465 82.6747 230.085 78.2306 230 75.3526C230 74.4638 230.423 73.6173 231.185 73.1517L244.936 64.3482C245.866 63.7556 247.093 63.9249 247.813 64.8138L248.49 65.6602C248.955 66.2528 249.124 67.057 248.87 67.7341L241.381 89.7006L241.339 89.6583Z" fill="#00DB4F"/>
<path d="M11.1188 10.2898L29.0162 7.53866C31.6817 7.11542 34.0088 9.3163 33.7972 12.0251C33.501 15.4957 32.9088 19.3896 32.528 21.8444C32.1472 24.2569 31.8086 26.5424 31.5548 28.6163C31.3855 30.013 30.497 31.2404 29.2277 31.833C27.5353 32.5948 25.7159 33.526 23.7697 34.4994C20.004 36.3617 14.9691 38.8589 10.8227 40.3825C8.1994 41.356 5.36456 39.4514 5.23763 36.6157C5.06839 32.6371 5.74536 28.4047 6.42232 24.0029C6.93005 20.7863 7.43779 17.4849 7.69165 14.1413C7.81858 12.1944 9.21482 10.5437 11.1188 10.2474V10.2898Z" fill="#00DB4F"/>
<path d="M338.026 16.4909C339.295 17.3798 339.93 18.9034 339.718 20.4271C338.407 29.1037 335.191 46.5837 334.303 49.1655C334.049 49.7581 333.71 50.6046 330.875 50.6046C328.041 50.6046 324.402 49.7157 320.89 48.8693C319.494 48.5307 318.14 48.1921 316.828 47.9381C315.094 47.5572 313.824 46.1605 313.613 44.3828L311.032 23.0936C310.82 21.4006 311.666 19.7499 313.19 18.9458L327.152 11.4966C328.548 10.7348 330.241 10.8618 331.51 11.7929L338.026 16.4909Z" fill="#00DB4F"/>
<path d="M282.993 4C285.151 4 287.563 4.80417 289.974 5.81996C291.371 6.4125 292.386 7.72456 292.513 9.24825C292.767 12.5072 293.317 16.2318 293.952 20.295C294.586 24.6544 295.686 31.9342 295.813 35.7858C295.856 37.1825 295.263 38.4945 294.121 39.341C291.836 40.9917 287.859 43.4042 285.701 44.5046C284.939 44.8856 284.136 45.0549 283.289 44.9279C279.608 44.42 271.569 42.2614 265.773 40.2299C263.446 39.4257 262.346 36.7592 263.403 34.5584C268.396 24.1465 278.212 6.66645 280.751 4.42325C281.428 4.1693 282.189 4.04233 282.993 4.04233V4Z" fill="#00DB4F"/>
<path d="M81.4817 102.895C81.1855 108.567 75.8544 116.989 70.1848 121.857C69.1693 122.703 67.8577 123.084 66.5461 122.83L59.311 121.306C57.4493 120.925 56.0954 119.317 56.0107 117.455C55.9261 115.719 55.8415 113.857 55.7146 111.826C55.2069 103.318 54.276 87.489 57.7878 83.7644C58.0416 83.5105 58.2532 83.3835 58.761 83.3835C58.8879 83.3835 59.0571 83.3835 59.184 83.3835C59.311 83.3835 59.3956 83.3835 59.2687 83.2988C61.6381 84.6532 75.1775 95.319 80.1278 99.8054C81.0163 100.61 81.5663 101.752 81.4817 102.98V102.895Z" fill="#00DB4F"/>
<path d="M184.275 180.41C182.371 182.06 179.451 181.722 178.055 179.606C175.39 175.543 172.428 170.379 170.609 167.247C169.847 165.935 169.17 164.792 168.578 163.734C167.647 162.168 167.858 160.221 169.085 158.867L174.882 152.391C176.32 150.783 178.732 150.529 180.467 151.841C182.54 153.449 184.74 154.888 186.813 156.242C191.256 159.163 195.868 162.168 196.418 165.004C196.672 166.358 196.079 168.136 194.599 170.294C192.864 172.876 189.394 175.923 186.052 178.844C185.459 179.352 184.867 179.86 184.275 180.41Z" fill="#00DB4F"/>
<path d="M91.3401 112.885C89.6477 111.996 88.8014 110.049 89.2668 108.187C90.0707 104.97 91.6785 102.134 93.9633 99.7639C97.8559 95.7854 103.568 93.4999 109.618 93.4999C113.003 93.4999 116.261 94.1771 119.307 95.4891C121.127 96.251 122.1 98.2402 121.719 100.187L117.361 120.884C116.769 123.593 113.765 124.989 111.311 123.677L91.3824 112.885H91.3401Z" fill="#00DB4F"/>
<path d="M110.21 9.6546C110.633 9.61228 111.099 9.56996 111.522 9.52763C113.807 9.31601 115.795 11.009 116.007 13.2945C116.472 17.8656 116.472 24.4259 116.472 28.616C116.472 32.6369 116.472 35.9805 116.599 38.8163C116.684 40.7209 115.457 42.4562 113.638 43.0064L103.102 46.0961C101.706 46.5193 100.141 46.1807 99.0828 45.1649C92.6939 38.7739 90.0706 31.0285 92.0169 23.7487C94.0901 16.0879 100.86 10.8397 110.168 9.6546H110.21Z" fill="#00DB4F"/>
<path d="M83.9776 47.0699C85.5007 46.2657 87.3624 46.4773 88.6317 47.6624C89.351 48.2973 90.1126 49.1861 90.8319 50.2019C95.9938 57.2701 99.1247 69.4596 99.3363 76.6547C99.3786 78.1784 98.5324 79.5751 97.2208 80.337L85.8815 86.6857C84.6122 87.4052 83.0468 87.4052 81.7775 86.6857C77.0387 83.8922 69.3381 78.644 66.2495 76.1892C65.2763 75.4273 64.684 74.3269 64.6417 73.0995C64.4301 68.6977 66.461 60.1058 68.1111 56.6352C68.4496 55.9157 68.9997 55.3231 69.6767 54.9422C72.5115 53.2492 80.2966 49.0168 83.9776 47.1122V47.0699Z" fill="#00DB4F"/>
<path d="M133.029 123.702C133.022 123.685 133.022 123.665 133.03 123.647C134.768 119.61 139.83 115.717 145.084 114.378C147.045 113.881 149.661 113.572 152.047 114.451C153.037 114.828 153.838 115.538 154.296 116.515C156.22 120.418 159.919 129.219 161.03 132.223C161.231 132.723 161.321 133.267 161.277 133.8C161.163 135.039 160.726 136.601 159.913 138.508C159.298 139.948 158.606 141.355 157.914 142.761C157.338 143.937 155.87 144.35 154.782 143.622C148.002 139.09 137.551 131.382 133.536 127.772C132.871 127.174 132.417 126.348 132.539 125.463C132.614 124.921 132.777 124.352 133.029 123.758C133.036 123.74 133.037 123.72 133.029 123.702Z" fill="#00DB4F"/>
<path d="M119.097 85.4C119.097 85.4098 119.086 85.4163 119.077 85.4121C118.111 84.9501 117.144 84.5294 116.22 84.0669C115.035 83.5167 114.146 82.5009 113.85 81.2312L110.559 67.448C110.243 66.1224 110.992 64.7747 112.285 64.3436C117.446 62.6083 122.312 61 126.966 61C128.405 61 129.759 61.1693 131.113 61.4656C133.017 61.8888 134.286 63.7088 134.201 65.6557L133.561 82.0981C133.484 84.0693 132.534 85.9042 130.969 87.1047L130.272 87.639C129.069 88.5619 127.497 88.8874 126.07 88.3736C123.822 87.5642 121.504 86.488 119.116 85.3878C119.107 85.3837 119.097 85.3902 119.097 85.4Z" fill="#00DB4F"/>
<path d="M123.902 150.598C124.241 148.735 125.764 147.296 127.668 147.169C128.937 147.085 130.291 147 131.603 147C135.03 147 137.484 147.381 138.923 147.804C139.769 148.058 140.488 148.566 141.038 149.286C143.407 152.502 149.246 161.729 153.393 168.67C154.747 170.956 153.647 173.918 151.15 174.723C146.623 176.162 142.688 176.881 139.007 176.881C132.788 176.881 127.414 174.85 122.379 170.575C121.279 169.644 120.814 168.162 121.068 166.723L123.902 150.598Z" fill="#00DB4F"/>
<path d="M100.944 164.733C96.2897 166.256 91.5086 167.822 87.3622 167.822C84.6543 167.822 82.5388 167.145 80.6771 165.706C80.0848 165.24 79.704 164.606 79.4501 163.886C77.5885 158.469 73.4844 142.639 72.3843 137.349C72.1304 136.206 72.3842 135.105 73.0612 134.132C74.6267 131.846 77.8 128.714 80.0425 126.937C81.2272 126.006 82.835 125.752 84.1889 126.344C87.3199 127.741 91.8471 130.704 95.9089 133.328C99.9707 135.952 104.117 138.661 107.967 140.65C109.448 141.412 110.252 143.02 110.125 144.671C109.744 149.58 108.517 156.649 107.544 160.585C107.206 162.024 106.106 163.082 104.71 163.505C103.483 163.886 102.213 164.267 100.944 164.69V164.733Z" fill="#00DB4F"/>
<path d="M64.7047 372.696C67.5209 376.702 70.4147 380.818 71.6254 384.784C72.4161 387.374 72.3861 389.595 71.5533 391.795C71.281 392.498 70.785 393.047 70.1709 393.5C65.533 396.863 51.5918 405.41 46.853 408.007C45.8341 408.583 44.7075 408.662 43.5788 408.299C40.9358 407.469 37.0137 405.348 34.6588 403.722C33.4223 402.861 32.71 401.398 32.8814 399.93C33.303 396.527 34.8147 391.332 36.1385 386.681C37.4623 382.03 38.8423 377.274 39.6207 373.01C39.9169 371.372 41.2204 370.133 42.8362 369.772C47.6431 368.703 54.7616 367.813 58.8104 367.594C60.2856 367.498 61.6188 368.241 62.4312 369.453C63.1538 370.515 63.8888 371.618 64.6642 372.708L64.7047 372.696Z" fill="#00DB4F"/>
<path d="M94.2596 204.137C93.8365 199.651 93.9634 190.212 94.5981 184.583C94.7673 182.89 95.952 181.536 97.5598 181.07L109.703 177.515C110.972 177.134 112.284 177.388 113.342 178.15L124.469 186.445C125.654 187.334 126.289 188.773 126.119 190.255L124.3 206.338C124.131 207.819 123.158 209.089 121.804 209.682C118.207 211.29 112.665 213.068 109.83 213.66C109.068 213.829 108.307 213.745 107.587 213.491C104.583 212.348 98.9137 209.174 96.0789 207.269C95.0211 206.55 94.3442 205.449 94.2172 204.179L94.2596 204.137Z" fill="#00DB4F"/>
<path d="M138.222 254.373C134.795 254.373 130.902 253.104 126.756 251.791C125.825 251.495 124.852 251.199 123.921 250.903C121.975 250.31 120.748 248.363 121.044 246.332L123.54 230.079C123.752 228.598 124.767 227.286 126.206 226.82C129.675 225.593 132.679 225 135.176 225C138.814 225 140.38 226.312 141.226 227.328C144.315 230.841 145.288 238.629 144.188 250.479C144.018 252.088 143.003 253.527 141.48 253.992C140.464 254.289 139.407 254.458 138.222 254.458V254.373Z" fill="#00DB4F"/>
<path d="M56.096 222.081C55.2075 219.288 52.8804 200.242 52.1611 190.084C52.0342 188.264 53.1766 186.656 54.869 186.021C57.7038 184.92 60.2848 183.566 62.7388 182.296C66.6313 180.265 70.27 178.402 73.274 178.402C74.4587 178.402 76.1088 178.656 78.309 180.392C79.3244 181.196 79.9168 182.465 79.8745 183.735L79.409 204.39C79.409 205.659 78.7744 206.844 77.7167 207.649L57.0691 222.97C56.6037 222.759 56.2652 222.462 56.1383 222.124L56.096 222.081Z" fill="#00DB4F"/>
<path d="M50.9126 451.033C50.581 451.134 50.206 451.213 49.9534 451.218C48.002 451.128 37.9419 448.628 34.7638 447.499C34.2741 447.322 33.8303 447.059 33.4657 446.699C31.2726 444.287 29.9604 438.954 28.9209 434.626C28.7781 434.161 28.7119 433.709 28.5692 433.245C28.238 431.931 28.6771 430.525 29.7819 429.75C32.1598 428.039 34.4917 426.887 37.0786 426.092C40.4614 425.052 44.1245 424.689 48.4535 424.484C50.1345 424.404 51.6444 425.537 51.9679 427.181C55.0248 441.854 54.6602 449.881 50.8794 451.043L50.9126 451.033Z" fill="#00DB4F"/>
<path d="M91.226 257.042C90.7183 257.042 90.2106 257.042 89.7029 257C82.9332 256.534 74.598 249.847 72.1863 242.355C71.6786 240.747 72.2286 238.927 73.5826 237.869L91.0145 223.902C92.3262 222.844 94.1878 222.717 95.6687 223.521C96.261 223.859 96.8111 224.156 97.3611 224.452C103.031 227.584 103.75 227.965 103.411 236.599C102.819 252.09 99.8574 257.084 91.2684 257.084L91.226 257.042Z" fill="#00DB4F"/>
<path d="M53.6397 54.6474C52.8781 59.2184 50.9319 66.3713 49.6202 69.6726C49.1971 70.7307 48.3932 71.6196 47.2932 72.0005C45.5584 72.6353 42.6813 73.2702 39.2965 73.2702C37.5194 73.2702 36.2501 73.1009 35.3616 72.8893C34.4731 72.6777 33.7538 72.2121 33.2038 71.5349C31.8075 69.7573 29.5651 66.2443 27.9996 63.7049C26.3918 61.1231 24.784 58.5412 23.1339 56.1711C21.78 54.1818 22.33 51.473 24.3609 50.2456C29.8189 46.9443 34.1769 45.082 38.4926 45.082C42.5544 45.082 46.9124 46.8597 52.0743 50.6266C53.3436 51.5577 53.8936 53.1237 53.6397 54.6474Z" fill="#00DB4F"/>
<path d="M48.2681 4.15311C49.6643 3.51824 50.9337 2.84104 52.1607 2.20618C54.9109 0.724814 57.3226 -0.544922 59.5651 -0.544922C59.9035 -0.544922 60.2843 -0.544921 60.4958 -0.502596C63.923 0.513194 77.3355 9.78228 82.6243 14.7766C83.5974 15.7077 84.0205 17.0621 83.809 18.3742L82.0742 29.3362C81.8627 30.6483 81.0587 31.7911 79.874 32.3836L65.4462 39.8751C64.2192 40.5099 62.7806 40.5099 61.5536 39.8751C57.8303 37.8435 52.4146 34.7115 49.8759 33.2301C48.8605 32.6376 48.1412 31.6641 47.9297 30.479C47.0835 26.0349 47.5911 16.5119 47.8873 11.5176C48.0566 8.80882 48.1835 6.31167 48.2258 4.15311H48.2681Z" fill="#00DB4F"/>
<path d="M90.1966 -33.3477L100.774 -25.9409C101.747 -25.2637 102.382 -24.1632 102.509 -22.9781C102.763 -20.7772 103.101 -18.5764 103.482 -16.4601C105.471 -4.22833 105.64 0.00412369 95.57 2.3743C94.8508 2.5436 94.0891 2.5436 93.3699 2.33197C89.0119 0.892941 79.5344 -5.92132 74.7533 -9.39194C73.8224 -10.0691 72.8916 -10.7463 72.0454 -11.3389C70.1414 -12.6933 69.7606 -15.3174 71.1569 -17.1797C73.8647 -20.8619 78.4766 -26.0678 84.9501 -32.7551L90.3235 -33.263L90.1966 -33.3477Z" fill="#00DB4F"/>
<path d="M167.894 107.022C167.922 107.533 167.764 107.985 167.404 108.348C166.742 109.016 165.658 109.058 164.911 108.486L142.87 91.5993C141.516 90.5412 140.966 88.679 141.643 87.113C142.15 85.8855 142.7 84.8274 143.335 83.8963C145.874 80.1294 149.893 78.2671 157.213 77.6322C158.736 77.5053 160.217 78.3094 160.894 79.7061C164.12 86.0394 167.577 101.215 167.894 107.022Z" fill="#00DB4F"/>
<path d="M16.9579 63.0685C17.2963 63.661 17.7195 64.4652 18.0156 65.227L-6.05906 82.0722C-7.45531 83.0457 -9.40155 83.0034 -10.7132 81.9029C-11.7286 81.0564 -12.5749 80.2099 -13.2518 79.3211C-16.0443 75.7659 -16.6367 71.3641 -15.0289 64.2112C-14.6904 62.6876 -13.4634 61.5448 -11.9402 61.2908C-4.57819 60.0634 12.1345 61.5448 16.9579 63.0685Z" fill="#00DB4F"/>
<path d="M199.697 107.884C200.755 108.096 201.686 108.773 202.278 109.662C204.182 112.455 206.721 115.46 209.429 118.592C211.671 121.216 215.014 125.11 216.748 127.565C217.552 128.665 217.764 130.062 217.341 131.374C216.495 133.787 214.971 137.638 213.914 140.051H213.279C201.686 139.839 180.573 139.458 173.803 131.459C173.042 130.57 172.872 129.342 173.084 128.2C174.015 123.502 178.203 113.936 181.842 107.164C182.731 105.556 184.55 104.71 186.369 105.09L199.697 107.926V107.884Z" fill="#00DB4F"/>
<path d="M226.834 149.226C227.341 149.015 227.849 148.972 228.399 149.015C230.811 149.184 234.196 150.115 237.454 151.004C239.315 151.512 241.177 152.02 242.954 152.401C244.562 152.782 245.831 153.967 246.127 155.575L250.062 175.256C250.358 176.695 249.893 178.176 248.793 179.15C245.45 182.155 241.135 184.906 238.638 184.906V185.075C236.353 183.594 221.629 171.32 215.367 165.648C213.887 164.294 213.548 162.093 214.648 160.4C217.271 156.295 223.068 150.708 226.834 149.226Z" fill="#00DB4F"/>
<path d="M-13.4201 226.229C-13.7586 224.197 -12.574 222.208 -10.6277 221.573C-6.60818 220.219 -3.22332 219.33 -0.430832 219.33C2.36166 219.33 5.87342 220.05 10.4006 227.753C10.9084 228.641 11.1199 229.784 10.8661 230.8C8.83516 239.138 3.4194 244.598 -5.21194 247.053C-7.58133 247.73 -10.0353 246.164 -10.4161 243.751L-13.4201 226.229Z" fill="#00DB4F"/>
<path d="M172.968 232.115C173.193 233.298 172.521 234.505 171.359 234.902C168.972 235.767 166.974 236.347 165.355 236.375C163.736 236.404 161.604 236.038 158.786 231.496C158.457 230.987 158.334 230.309 158.47 229.714C159.557 224.725 162.698 221.444 167.84 219.847C169.214 219.414 170.7 220.342 170.975 221.777L172.983 232.155L172.968 232.115Z" fill="#00DB4F"/>
<path d="M250.256 0.0890961C249.875 -1.05367 250.425 -2.3234 251.525 -2.87362C253.81 -4.01638 255.714 -4.82055 257.322 -5.03218C258.93 -5.2438 261.088 -5.15915 264.388 -0.969018C264.769 -0.503448 264.98 0.173745 264.895 0.766289C264.388 5.84524 261.68 9.48516 256.772 11.686C255.418 12.2786 253.852 11.5591 253.429 10.1624L250.214 0.131422L250.256 0.0890961Z" fill="#00DB4F"/>
<path d="M54.5289 151.358C54.6135 150.511 55.1212 149.834 55.8405 149.368C56.6867 148.86 57.5329 148.268 58.3368 147.675C59.2253 147.041 60.6639 146.025 61.4678 145.728C62.6102 148.522 64.2603 161.262 64.218 165.113C64.218 165.748 63.9641 166.383 63.4987 166.848C62.1447 168.203 59.183 170.023 56.0521 171.208C54.275 171.885 52.4134 170.361 52.6249 168.499L54.5289 151.4V151.358Z" fill="#00DB4F"/>
<path d="M133.481 13.2059C133.565 13.9254 133.311 14.6872 132.761 15.1951C132.127 15.83 131.534 16.5495 130.984 17.2267C130.35 17.9886 129.334 19.1736 128.742 19.5969C127.134 17.4383 122.903 6.81487 122.057 3.47122C121.93 2.92101 122.014 2.32846 122.311 1.82057C123.157 0.339208 125.357 -1.86167 127.769 -3.59698C129.165 -4.57045 131.111 -3.68163 131.323 -1.98864L133.481 13.2059Z" fill="#00DB4F"/>
<path d="M153.442 190.331L168.321 191.218C169.367 191.285 170.333 191.888 170.87 192.775L173.327 196.905C174.344 198.618 173.578 200.776 171.725 201.519L151.923 209.32C149.585 210.225 147.142 208.222 147.62 205.754L150.085 192.936C150.41 191.361 151.798 190.243 153.411 190.36L153.442 190.331Z" fill="#00DB4F"/>
<path d="M237.705 -2.37159C241.503 6.58449 246.82 23.0107 248.74 31.4446C249.459 34.4969 248.66 37.5894 246.661 40.0393C238.465 50.1199 215.836 70.4016 198.364 84.7393C194.326 88.0728 188.449 87.6712 184.811 83.8558C172.497 70.9237 154.985 51.2846 149.788 44.7382C148.908 43.6137 148.308 42.449 147.949 41.0835C145.95 33.4527 143.191 13.5726 142.031 -0.724957C141.672 -5.22308 144.39 -9.3999 148.628 -10.8457C153.546 -12.5325 158.224 -14.7013 162.621 -16.7093C168.938 -19.601 174.935 -22.3722 179.133 -22.9344C180.213 -23.0951 181.252 -22.9344 182.292 -22.7336C191.008 -20.8862 219.194 -12.2916 231.908 -7.67295C234.506 -6.74922 236.505 -4.82146 237.585 -2.29126L237.705 -2.37159Z" fill="#00DB4F"/>
<path d="M20.3847 208.96L-43.5465 201.977C-50.4431 201.215 -55.7319 195.501 -55.9012 188.56C-55.9858 185.64 -56.0704 182.592 -56.155 179.46C-56.6627 161.811 -57.6782 125.115 -54.928 107.805C-54.0818 102.599 -50.4431 98.4086 -45.4082 96.8849C-32.5881 92.9487 -6.48246 85.7959 8.707 82.0713C12.6842 81.0979 16.746 81.902 20.0462 84.3145C28.339 90.367 39.7629 99.1281 45.3902 103.699C47.8442 105.688 49.7059 108.313 50.2136 111.402C52.5407 125.369 45.221 156.097 40.5668 175.482C38.7051 183.227 36.8858 190.846 35.3626 198.083C33.8818 205.067 27.4082 209.722 20.3424 208.96H20.3847Z" fill="#00DB4F"/>
<path d="M-27.7809 299.08C-27.7824 299.094 -27.7659 299.102 -27.756 299.092C-27.4859 298.821 -25.4464 296.773 -25.403 296.738C-23.2068 294.503 -19.1495 290.383 -17.5344 290.002C-10.494 288.626 13.5365 292.554 27.5524 302.352C36.0517 308.295 20.6001 425.755 3.90226 420.671L-57.5496 408.399C-62.2586 407.47 -66.235 404.066 -67.7024 399.482C-82.7296 353.405 -71.4166 342.223 -27.807 299.068C-27.797 299.058 -27.7794 299.066 -27.7809 299.08Z" fill="#00DB4F"/>
</svg>
